<svg xmlns="http://www.w3.org/2000/svg" viewBox="0 0 1600 700" preserveAspectRatio="xMidYMid slice">
  <defs>
    <linearGradient id="bg" x1="0" y1="0" x2="1" y2="1">
      <stop offset="0" stop-color="#101416"/>
      <stop offset="0.48" stop-color="#173344"/>
      <stop offset="1" stop-color="#111517"/>
    </linearGradient>
    <radialGradient id="redGlow" cx="78%" cy="44%" r="42%">
      <stop offset="0" stop-color="#b51f2b" stop-opacity="0.46"/>
      <stop offset="0.45" stop-color="#b51f2b" stop-opacity="0.16"/>
      <stop offset="1" stop-color="#b51f2b" stop-opacity="0"/>
    </radialGradient>
    <pattern id="grid" width="64" height="64" patternUnits="userSpaceOnUse">
      <path d="M64 0H0V64" fill="none" stroke="#ffffff" stroke-opacity="0.08" stroke-width="1"/>
    </pattern>
    <filter id="soft">
      <feGaussianBlur stdDeviation="5"/>
    </filter>
  </defs>

  <rect width="1600" height="700" fill="url(#bg)"/>
  <rect width="1600" height="700" fill="url(#grid)" opacity="0.9"/>
  <rect width="1600" height="700" fill="url(#redGlow)"/>

  <g opacity="0.18" stroke="#ffffff" fill="none" stroke-width="2">
    <path d="M180 520H1460M260 440H1180M360 360H1520"/>
    <path d="M320 120V610M620 90V640M920 120V610M1220 80V640"/>
    <path d="M240 280l210-120h320l130 90h260l190-120"/>
    <path d="M300 560l180-150h210l150 80h280l240-170"/>
  </g>

  <g opacity="0.5">
    <path d="M980 160h320v180H980z" fill="#ffffff" fill-opacity="0.06" stroke="#ffffff" stroke-opacity="0.18"/>
    <path d="M1018 198h84v104h-84z" fill="#b51f2b" fill-opacity="0.55"/>
    <path d="M1140 198h120v22h-120M1140 244h120v22h-120M1140 290h82v22h-82" stroke="#ffffff" stroke-opacity="0.28" stroke-width="8"/>
  </g>

  <g opacity="0.34" transform="translate(1110 390)">
    <circle cx="0" cy="0" r="82" fill="none" stroke="#ffffff" stroke-opacity="0.36" stroke-width="18"/>
    <circle cx="0" cy="0" r="36" fill="none" stroke="#b51f2b" stroke-opacity="0.48" stroke-width="10"/>
    <path d="M-150 0H-86M86 0h180M0-86v-90M0 86v120" stroke="#ffffff" stroke-opacity="0.26" stroke-width="18" stroke-linecap="round"/>
  </g>

  <g opacity="0.42" transform="translate(720 420)">
    <path d="M0 0h210v92H0z" fill="#ffffff" fill-opacity="0.1" stroke="#ffffff" stroke-opacity="0.2"/>
    <path d="M28 24h154M28 48h104M28 72h132" stroke="#ffffff" stroke-opacity="0.28" stroke-width="8"/>
  </g>

  <g opacity="0.28" stroke="#b51f2b" stroke-width="22" stroke-linecap="round" fill="none">
    <path d="M-120 600C220 500 420 620 720 510s520-220 1020-90">
      <animate attributeName="stroke-opacity" values="0.12;0.42;0.12" dur="5s" repeatCount="indefinite"/>
    </path>
    <path d="M-90 175C290 260 520 120 810 220s420 220 930 120">
      <animate attributeName="stroke-opacity" values="0.38;0.14;0.38" dur="6s" repeatCount="indefinite"/>
    </path>
  </g>

  <g>
    <rect x="-420" y="0" width="320" height="700" fill="#ffffff" opacity="0.06" filter="url(#soft)">
      <animate attributeName="x" values="-420;1680" dur="7s" repeatCount="indefinite"/>
    </rect>
    <rect x="-260" y="0" width="80" height="700" fill="#b51f2b" opacity="0.16" filter="url(#soft)">
      <animate attributeName="x" values="-260;1700" dur="7s" repeatCount="indefinite"/>
    </rect>
  </g>

  <g opacity="0.46" stroke="#ffffff" stroke-width="2" fill="none">
    <path d="M1320 120h120v120h-120z">
      <animate attributeName="opacity" values="0.22;0.74;0.22" dur="4s" repeatCount="indefinite"/>
    </path>
    <path d="M1390 410h90v150h-90z">
      <animate attributeName="opacity" values="0.66;0.22;0.66" dur="5s" repeatCount="indefinite"/>
    </path>
    <path d="M820 130h120v70H820z">
      <animate attributeName="opacity" values="0.18;0.62;0.18" dur="4.8s" repeatCount="indefinite"/>
    </path>
  </g>
</svg>
